<svg xmlns="http://www.w3.org/2000/svg" xmlns:xlink="http://www.w3.org/1999/xlink" version="1.1" x="0px" y="0px" viewBox="0 0 100 125" enable-background="new 0 0 100 100" xml:space="preserve"><path d="M90.348,16.191H9.653c-1.684,0-3.049,1.365-3.049,3.049v50.042c0,1.684,1.365,3.049,3.049,3.049h31.854v8.705  c-3.673-0.003-6.549-0.005-7.483-0.005c-1.302,0-1.242,0.684-1.242,0.684s0,0.76,0,1.408c0,0.717,1.242,0.687,1.242,0.687  s27.215-0.012,32.081-0.012c1.422,0,1.452-0.695,1.452-0.695s0-0.894,0-1.359c0-0.75-1.24-0.686-1.24-0.686  s-3.166-0.003-7.524-0.007v-8.72h31.554c1.684,0,3.048-1.365,3.048-3.049V19.24C93.396,17.556,92.031,16.191,90.348,16.191z"/><text x="0" y="115" fill="#000000" font-size="5px" font-weight="bold" font-family="'Helvetica Neue', Helvetica, Arial-Unicode, Arial, Sans-serif">Created by Jacqueline Fernandes</text><text x="0" y="120" fill="#000000" font-size="5px" font-weight="bold" font-family="'Helvetica Neue', Helvetica, Arial-Unicode, Arial, Sans-serif">from the Noun Project</text></svg>